<?xml version="1.0" encoding="UTF-8"?><svg id="Layer_1" xmlns="http://www.w3.org/2000/svg" viewBox="0 0 512 512"><defs><style>.cls-1{fill:none;stroke:#2d2d2d;stroke-linecap:round;stroke-miterlimit:10;stroke-width:8px;}.cls-2{fill:#514946;}.cls-3{fill:#989391;}.cls-4,.cls-5,.cls-6{fill:#2d2d2d;}.cls-4,.cls-6{font-family:ArialMT, Arial;font-size:168.21px;}.cls-7{fill:#f05626;}.cls-6{letter-spacing:-.04em;}.cls-8{fill:#eee;}.cls-9{fill:#f08563;}</style></defs><path class="cls-5" d="M428.89,483.12c0,9.29-7.77,16.7-17.05,16.26l-393.96,.02h0l394.15-32.55c9.21-.33,16.85,7.05,16.85,16.27h0Z"/><line class="cls-1" x1="306.6" y1="375.66" x2="279.45" y2="375.66"/><text class="cls-4" transform="translate(152.56 436.27) scale(1.04 1)"><tspan x="0" y="0">S</tspan></text><text class="cls-6" transform="translate(316.16 436.27) scale(1.04 1)"><tspan x="0" y="0">L</tspan></text><path class="cls-5" d="M483.78,342.57c-1.05,60.06-14.84,99.38-51.59,147.15-3.1,2.52-6.12,5.19-9.43,7.41-8.16,5.48-18.42,3.83-24.74-3.74-5.93-7.1-5.5-18.49,1.32-25.12,4.04-3.93,8.57-7.35,12.91-10.96,55.34-79.22,46.53-205.84-53.77-251.7-19.37-8.86-39.57-13.33-60.81-13.55-12.28-.13-20.88-8.27-20.66-19.36,.22-10.93,9.49-19.13,21.5-18.52,78.54,4.02,135.29,41.27,169.24,112.27,11.4,23.85,16.26,49.51,16.02,76.11Zm-188.05-156.19c6.91,.11,12.93-5.81,13.15-12.93,.22-7.1-5.42-13.24-12.49-13.6-6.89-.35-13.7,6.27-13.69,13.31,.01,6.72,6.31,13.12,13.03,13.23Zm129.49,295.08c.16-7.03-5.03-12.63-12-12.95-7.2-.33-13.15,5.37-13.12,12.55,.03,6.98,5.49,12.52,12.4,12.58,6.94,.07,12.57-5.32,12.73-12.19Z"/><path class="cls-5" d="M331.8,152.29c-11.71-.92-23.41-2.36-35.14-2.63-14.07-.33-24.57,10.26-24.52,23.62,.04,12.9,10.44,22.6,24.17,23.51,12.11,.8,24.17,2.5,36.45,3.82v34.85c-2.45,.38-4.66,.72-7.19,1.11v13.13h-72.46c.28-3.94,.51-7.35,.81-11.59h71.47c0-.62,0-1.24,0-1.86h-77.79c-.34-2.02-.69-3.11-.68-4.19,.28-47.1,.52-94.2,.95-141.3,.09-10.11,5.78-15.66,16.02-15.73,17.89-.12,35.79-.02,53.69,.27,10.59,.17,15.96,5.81,15.94,16.45-.03,19.78-.27,39.56-.42,59.34-.44,.4-.87,.81-1.31,1.21Z"/><path class="cls-5" d="M314.74,69.41h-47.63V26.78c0-5.7,4.62-10.31,10.31-10.31h27c5.7,0,10.31,4.62,10.31,10.31v42.64Z"/><path class="cls-5" d="M311.1,252.88c-1.84,7.62-3.42,14.16-5.08,21.05h-30.54c-1.47-7.19-2.86-13.98-4.3-21.05h39.93Z"/><path class="cls-2" d="M331.8,152.29l1.31-1.21-1.31,1.21Z"/><path class="cls-8" d="M295.73,186.38c-6.72-.11-13.02-6.51-13.03-13.23-.01-7.03,6.8-13.66,13.69-13.31,7.07,.36,12.7,6.5,12.49,13.6-.22,7.11-6.25,13.04-13.15,12.93Zm-.09-4.63c5,.12,9.2-3.76,9.25-8.54,.05-4.67-4.32-9.07-8.96-9.04-4.69,.03-8.31,3.59-8.6,8.45-.32,5.3,3.06,9.01,8.31,9.13Z"/><path class="cls-8" d="M425.22,481.46c-.16,6.87-5.78,12.26-12.73,12.19-6.91-.07-12.37-5.61-12.4-12.58-.03-7.18,5.92-12.88,13.12-12.55,6.97,.32,12.16,5.91,12,12.95Zm-10.23,7.04s0,0,0,0c.72-.29,1.45-.58,2.17-.87,0,0-.07,.03-.07,.03,.84-.94,1.68-1.88,2.51-2.83,.23-.54,.46-1.07,.69-1.61,0-1.37,0-2.74,0-4.11-.2-.57-.39-1.13-.59-1.7-5.84-6.32-10.52-5.78-14.67,1.69,.01,1.4,.02,2.8,.03,4.2,1.33,1.47,2.66,2.94,3.99,4.41,1.59,.53,3,.52,4.59,1.05l1.35-.27Z"/><path class="cls-5" d="M295.65,181.75c-5.26-.12-8.63-3.83-8.31-9.13,.29-4.86,3.91-8.42,8.6-8.45,4.65-.03,9.01,4.37,8.96,9.04-.05,4.78-4.26,8.66-9.25,8.54Z"/><path class="cls-5" d="M420.29,479.12c0,1.37,0,2.74,0,4.11-.23,.54-.46,1.07-.69,1.61-.84,.94-1.68,1.88-2.51,2.83,0,0,.07-.03,.07-.03-.72,.29-1.45,.58-2.17,.87-1.98-.26-3.96-.52-5.94-.78-1.33-1.47-2.66-2.94-3.99-4.41-.01-1.4-.02-2.8-.03-4.2,4.15-7.47,8.82-8.01,14.67-1.69,.19,.57,.39,1.13,.59,1.7Z"/><path class="cls-3" d="M405.04,479.11c.01,1.4,.02,2.8,.03,4.2-.01-1.4-.02-2.8-.03-4.2Z"/><path class="cls-9" d="M420.29,479.12c-.2-.57-.39-1.13-.59-1.7,.2,.57,.39,1.13,.59,1.7Z"/><path class="cls-9" d="M419.6,484.83c.23-.54,.46-1.07,.69-1.61-.23,.54-.46,1.07-.69,1.61Z"/><path class="cls-7" d="M417.17,487.63l-.07,.03,.07-.03Z"/></svg>